<svg id="Capa_1" enable-background="new 0 0 512 512" height="512" viewBox="0 0 512 512" width="512" xmlns="http://www.w3.org/2000/svg" xmlns:xlink="http://www.w3.org/1999/xlink"><linearGradient id="SVGID_1_" gradientUnits="userSpaceOnUse" x1="256" x2="256" y1="451" y2="31"><stop offset="0" stop-color="#fd3a84"/><stop offset="1" stop-color="#ffa68d"/></linearGradient><linearGradient id="SVGID_2_" gradientUnits="userSpaceOnUse" x1="195.5" x2="195.5" y1="481" y2="121"><stop offset="0" stop-color="#ffc2cc"/><stop offset="1" stop-color="#fff2f4"/></linearGradient><g><g><g><path d="m75 421h-60c-8.284 0-15 6.716-15 15s6.716 15 15 15h60c8.284 0 15-6.716 15-15s-6.716-15-15-15zm422 0h-362c-8.284 0-15 6.716-15 15s6.716 15 15 15h362c8.284 0 15-6.716 15-15s-6.716-15-15-15zm0-390h-482c-8.284 0-15 6.716-15 15v300c0 8.284 6.716 15 15 15h482c8.284 0 15-6.716 15-15v-300c0-8.284-6.716-15-15-15z" fill="url(#SVGID_1_)"/></g></g><g><g><path d="m322.708 182.583-120-60c-4.65-2.325-10.171-2.077-14.594.657-4.422 2.733-7.114 7.561-7.114 12.76v120c0 5.199 2.692 10.027 7.114 12.76 2.409 1.489 5.144 2.24 7.886 2.24 2.292 0 4.591-.525 6.708-1.583l120-60c5.082-2.542 8.292-7.735 8.292-13.417s-3.21-10.875-8.292-13.417zm-217.708 208.417c-24.813 0-45 20.187-45 45s20.187 45 45 45 45-20.187 45-45-20.187-45-45-45z" fill="url(#SVGID_2_)"/></g></g></g></svg>